<?xml version="1.0" standalone="no"?>
<!DOCTYPE svg PUBLIC "-//W3C//DTD SVG 20010904//EN"
 "http://www.w3.org/TR/2001/REC-SVG-20010904/DTD/svg10.dtd">
<svg version="1.0" xmlns="http://www.w3.org/2000/svg"
 width="200.000000pt" height="200.000000pt" viewBox="0 0 200.000000 200.000000"
 preserveAspectRatio="xMidYMid meet">

<g transform="translate(0.000000,200.000000) scale(0.100000,-0.100000)"
fill="#000000" stroke="none">
<path d="M730 1947 l-255 -52 -5 -60 -5 -59 -90 -18 c-149 -29 -135 -20 -135
-86 l0 -58 -112 -23 c-62 -12 -115 -24 -119 -27 -10 -6 -2 -193 12 -299 49
-365 246 -719 550 -991 100 -89 250 -191 354 -240 l75 -36 75 36 c406 192 765
633 874 1074 33 134 62 444 43 456 -4 2 -58 15 -120 27 l-112 23 0 58 c0 66
12 59 -140 88 l-85 16 -5 60 -5 59 -230 46 c-126 26 -248 49 -270 52 -27 4
-124 -11 -295 -46z m210 -959 l0 -712 -72 105 c-88 126 -151 235 -181 312 -12
31 -24 57 -27 57 -3 0 -25 -29 -50 -65 -25 -36 -48 -65 -52 -65 -11 0 -144
202 -182 278 -59 118 -126 339 -126 418 0 23 3 24 60 24 l60 0 0 -32 c0 -46
33 -172 69 -262 29 -76 109 -226 120 -226 3 0 17 17 30 37 22 35 23 41 12 83
-39 140 -52 234 -58 403 l-6 177 57 0 56 0 0 -80 c0 -152 26 -329 70 -490 27
-94 92 -260 102 -260 4 0 8 227 8 505 l0 505 55 0 55 0 0 -712z m299 671 c102
-56 240 -151 300 -208 77 -73 90 -155 37 -233 l-23 -34 40 -34 c76 -64 86
-136 33 -247 -67 -138 -198 -314 -319 -426 -54 -50 -231 -187 -241 -187 -3 0
-6 317 -6 705 l0 705 51 0 c41 0 67 -8 128 -41z"/>
<path d="M1170 1330 c0 -154 3 -220 11 -220 21 0 145 63 222 114 79 52 101 82
80 115 -26 42 -267 211 -300 211 -10 0 -13 -47 -13 -220z"/>
<path d="M1370 1060 c-30 -10 -170 -72 -187 -83 -15 -10 -19 -457 -4 -457 18
0 190 192 249 277 101 150 125 209 102 254 -9 16 -21 19 -73 18 -34 0 -73 -4
-87 -9z"/>
</g>
</svg>
